<svg height="512" viewBox="0 0 512 512" width="512" xmlns="http://www.w3.org/2000/svg"><g id="Filled_outline" data-name="Filled outline"><path d="m336 488h-192v-256h224l56 152h-48v64a40 40 0 0 1 -40 40z" fill="#fec9a3"/><path d="m361.97 181.31a32.115 32.115 0 0 0 -15.38-11.51 31.995 31.995 0 0 0 -50.89-38.61 39.989 39.989 0 0 0 -79.4 0 32 32 0 0 0 -50.89 38.61 32 32 0 0 0 10.59 62.2h160a32 32 0 0 0 25.97-50.69z" fill="#f7afaf"/><path d="m361.97 181.31a32.115 32.115 0 0 0 -15.38-11.51 32 32 0 0 0 -9.14-44.63c-41.28 56.83-97.68 89.79-153.79 106.83h152.34a32 32 0 0 0 25.97-50.69z" fill="#f1a9a9"/><path d="m224 232a107.152 107.152 0 0 1 -2.71 24 107.639 107.639 0 0 1 -13.03 32 107.514 107.514 0 0 1 -60.89 46.99l-3.37 1.01v-104z" fill="#92563a"/><path d="m375.507 229.234a8 8 0 0 0 -7.507-5.234h-.022a39.966 39.966 0 0 0 -10.578-57.793 40 40 0 0 0 -57.207-48.956 48.011 48.011 0 0 0 -88.388 0 40.011 40.011 0 0 0 -57.205 48.956 40.053 40.053 0 0 0 -17.684 42.335l15.635-3.4a24.038 24.038 0 0 1 15.506-27.787 8 8 0 0 0 4-12.006 23.989 23.989 0 0 1 35.994-31.171c-.023.608-.046 1.216-.046 1.825a47.682 47.682 0 0 0 4 19.2l14.662-6.406a31.774 31.774 0 0 1 -2.667-12.797 32.43 32.43 0 0 1 .236-3.832l.005-.025a31.991 31.991 0 0 1 63.518 0 8 8 0 0 0 14.017 4.253 24 24 0 0 1 38.172 28.95 8 8 0 0 0 4 12.006 24 24 0 0 1 -7.948 46.648h-77.778a14 14 0 0 1 10.9-21.529l-1-15.969a29.983 29.983 0 0 0 -27.141 37.498h-96.981a8 8 0 0 0 -8 8v256a8 8 0 0 0 8 8h192a48.055 48.055 0 0 0 48-48v-56h40a8 8 0 0 0 7.507-10.766zm-223.507 74.766h33.2a98.473 98.473 0 0 1 -33.2 20.974zm46.742-16h-46.742v-16h55.626a99.629 99.629 0 0 1 -8.884 16zm16.944-48a99.243 99.243 0 0 1 -2.6 16h-61.086v-16zm160.314 136a8 8 0 0 0 -8 8v23.727a45.78 45.78 0 0 1 -33.344-20.165l-13.312 8.876a61.75 61.75 0 0 0 46.656 27.362v24.2a32.036 32.036 0 0 1 -32 32h-184v-138.1a115.423 115.423 0 0 0 79.71-101.9h130.712l50.1 136z"/><path d="m201.448 186a13.979 13.979 0 0 1 9.258 3.5l10.588-12a30 30 0 0 0 -49.846 22.5h16a14.016 14.016 0 0 1 14-14z"/><path d="m307.942 167.478a13.987 13.987 0 0 1 4.074 9.021l15.968-1a30 30 0 0 0 -51.154-19.337l11.313 11.315a14.017 14.017 0 0 1 19.799.001z"/><path d="m248 48h16v24h-16z"/><path d="m248 16h16v16h-16z"/><path d="m16 184h24v16h-24z"/><path d="m56 184h64v16h-64z"/><path d="m16 90.584h16v17.232h-16z" transform="matrix(.371 -.928 .928 .371 -77.018 84.642)"/><path d="m84 79.01h16v94.779h-16z" transform="matrix(.371 -.928 .928 .371 -59.526 164.883)"/><path d="m164 15.056h16v17.889h-16z" transform="matrix(.894 -.447 .447 .894 7.425 79.454)"/><path d="m188 45.167h16v53.666h-16z" transform="matrix(.894 -.447 .447 .894 -11.507 95.255)"/><path d="m111.636 23.561h16v96.878h-16z" transform="matrix(.661 -.751 .751 .661 -13.45 114.248)"/><path d="m56 12.383h16v21.313h-16z" transform="matrix(.661 -.751 .751 .661 4.423 55.865)"/><path d="m472 184h24v16h-24z"/><path d="m392 184h64v16h-64z"/><path d="m479.384 91.2h17.232v16h-17.232z" transform="matrix(.928 -.371 .371 .928 -1.943 188.312)"/><path d="m372.611 118.4h94.779v16h-94.779z" transform="matrix(.928 -.371 .371 .928 -16.906 165.005)"/><path d="m331.056 16h17.889v16h-17.889z" transform="matrix(.447 -.894 .894 .447 166.481 317.372)"/><path d="m289.167 64h53.666v16h-53.666z" transform="matrix(.447 -.894 .894 .447 110.282 322.44)"/><path d="m343.925 64h96.878v16h-96.878z" transform="matrix(.751 -.661 .661 .751 50.245 277.154)"/><path d="m437.343 15.04h21.313v16h-21.313z" transform="matrix(.751 -.661 .661 .751 96.459 301.705)"/><path d="m312 324a20 20 0 0 1 -40 0v-12h-16v12a36 36 0 0 0 72 0v-12h-16z"/></g></svg>