<svg height="463pt" viewBox="-53 0 463 463" width="463pt" xmlns="http://www.w3.org/2000/svg"><g fill="#d4e1f4"><path d="m89.992188 413v-271.800781h-50v271.800781c-.003907 22.09375 17.90625 40.007812 40 40h50c-22.09375.007812-40.003907-17.90625-40-40zm0 0"/><path d="m162.394531 22.101562c-.007812-3.210937 1.265625-6.292968 3.535157-8.5625 2.269531-2.273437 5.351562-3.542968 8.5625-3.539062h-50c-3.210938-.003906-6.292969 1.265625-8.5625 3.539062-2.269532 2.269532-3.542969 5.351563-3.535157 8.5625v39.199219h50zm0 0"/><path d="m59.992188 96.398438c-.003907-9.308594 3.691406-18.238282 10.277343-24.824219 6.582031-6.582031 15.511719-10.277344 24.824219-10.273438h-50c-9.3125-.003906-18.242188 3.691407-24.824219 10.273438-6.585937 6.585937-10.28125 15.515625-10.277343 24.824219-.003907 9.3125 3.691406 18.242187 10.277343 24.828124 6.582031 6.582032 15.511719 10.277344 24.824219 10.273438h50c-9.3125.003906-18.242188-3.691406-24.824219-10.273438-6.585937-6.585937-10.28125-15.515624-10.277343-24.828124zm0 0"/></g><path d="m312.292969 51.199219h-57.199219v-29.097657c-.003906-12.207031-9.898438-22.09765575-22.101562-22.101562h-108.597657c-12.207031.00390625-22.097656 9.894531-22.101562 22.101562v29.199219h-57.199219c-22.011719.003907-40.800781 15.890625-44.464844 37.59375-3.664062 21.703125 8.875 42.878907 29.664063 50.105469-.199219.714844-.296875 1.457031-.300781 2.199219v271.800781c.011718 27.609375 22.390624 49.988281 50 50h197.5c27.609374-.011719 49.992187-22.390625 50-50v-271.800781c.007812-.742188-.09375-1.484375-.300782-2.199219 20.816406-7.25 33.351563-28.46875 29.664063-50.199219s-22.523438-37.621093-44.5625-37.601562zm-189.898438-29.097657c.003907-1.160156.941407-2.09375 2.097657-2.101562h108.601562c1.15625.007812 2.09375.941406 2.097656 2.101562v29.199219h-112.796875zm185 390.898438c-.050781 16.546875-13.453125 29.953125-30 30h-197.402343c-16.546876-.046875-29.949219-13.453125-30-30v-271.5h257.5v271.5zm4.898438-291.5h-267.199219c-13.863281 0-25.101562-11.238281-25.101562-25.101562 0-13.859376 11.238281-25.097657 25.101562-25.097657h267.199219c13.863281 0 25.101562 11.238281 25.101562 25.097657 0 13.863281-11.238281 25.101562-25.101562 25.101562zm0 0" fill="#0635c9"/><path d="m178.691406 255.5c-5.515625.015625-9.984375 4.484375-10 10v122c0 5.523438 4.480469 10 10 10 5.523438 0 10-4.476562 10-10v-122c-.015625-5.515625-4.480468-9.984375-10-10zm0 0" fill="#1ae5be"/><path d="m242.691406 255.5c-5.515625.015625-9.984375 4.484375-10 10v122c0 5.523438 4.480469 10 10 10 5.523438 0 10-4.476562 10-10v-122c-.015625-5.515625-4.480468-9.984375-10-10zm0 0" fill="#1ae5be"/><path d="m114.691406 255.5c-5.515625.015625-9.984375 4.484375-10 10v122c0 5.523438 4.480469 10 10 10 5.523438 0 10-4.476562 10-10v-122c-.015625-5.515625-4.480468-9.984375-10-10zm0 0" fill="#1ae5be"/></svg>